<svg xmlns="http://www.w3.org/2000/svg" width="30" height="30" viewBox="0 0 30 30">
  <g id="mobile" transform="translate(3119 -7685)">
    <rect id="Rectangle_7540" data-name="Rectangle 7540" width="30" height="30" transform="translate(-3119 7685)" fill="rgba(255,255,255,0)"/>
    <g id="Group_28141" data-name="Group 28141" transform="translate(-1433 1978)">
      <g id="Group_27909" data-name="Group 27909" transform="translate(-1679 5708.857)">
        <path id="Path_64812" data-name="Path 64812" d="M16.471,24.8a1.961,1.961,0,0,1-1.806,2.082H4.806A1.942,1.942,0,0,1,3,24.8V5.082A1.942,1.942,0,0,1,4.806,3H14.7a1.939,1.939,0,0,1,1.776,2.082Z" transform="translate(-1.234 -0.88)" fill="#8cafff"/>
        <path id="Path_2245" data-name="Path 2245" d="M16.471,24.8a1.961,1.961,0,0,1-1.806,2.082H4.806A1.942,1.942,0,0,1,3,24.8V5.082A1.942,1.942,0,0,1,4.806,3H14.7a1.939,1.939,0,0,1,1.776,2.082Z" transform="translate(-3 -3)" fill="none" stroke="#234496" stroke-miterlimit="10" stroke-width="1.4"/>
        <path id="Path_2246" data-name="Path 2246" d="M22.425,65.6a1.225,1.225,0,1,0,1.225,1.225A1.228,1.228,0,0,0,22.425,65.6Z" transform="translate(-15.628 -46.434)" fill="#fff"/>
      </g>
    </g>
  </g>
</svg>
